# xmcd CD database file
#
# Track frame offsets:
#	182
#	12620
#	23707
#	34845
#	55307
#	62017
#	72597
#	82757
#	100357
#	110557
#	130450
#	144750
#	157817
#	169925
#	176095
#	197925
#
# Disc length: 2853 seconds
#
# Revision: 2
# Processed by: cddbd v1.4PL0 Copyright (c) Steve Scherf et al.
# Submitted via: CDex 1.40Release
#
DISCID=df0b2310
DTITLE=Henri Dès - En concert à l'Olympia
DYEAR=1990
DGENRE=Chanson
TTITLE0=Le grand frère et la petite soeur
TTITLE1=Les bêtises à l'école
TTITLE2=Le courant d'air
TTITLE3=Drôle de p'tit jus
TTITLE4=Le fantôme
TTITLE5=J'ai plus faim
TTITLE6=La serpette
TTITLE7=La ferme des prés
TTITLE8=Le dessin fou
TTITLE9=Marchand de sable
TTITLE10=Cache-cache
TTITLE11=Le petit zinzin
TTITLE12=Bizarre, bizarre
TTITLE13=Mes petits soulierts
TTITLE14=Le voyage
TTITLE15=La petite Charlotte
EXTD=YEAR: 1990 ID3G: 102
EXTT0=
EXTT1=
EXTT2=
EXTT3=
EXTT4=
EXTT5=
EXTT6=
EXTT7=
EXTT8=
EXTT9=
EXTT10=
EXTT11=
EXTT12=
EXTT13=
EXTT14=
EXTT15=
PLAYORDER=
